<mxfile host="app.diagrams.net" modified="2024-01-26T14:18:22.416Z" agent="Mozilla/5.0 (Windows NT 10.0; Win64; x64) AppleWebKit/537.36 (KHTML, like Gecko) Chrome/120.0.0.0 Safari/537.36" etag="VIWKcQloh8TRpFBBFjTw" version="23.0.2" type="device">
  <diagram id="R2lEEEUBdFMjLlhIrx00" name="Page-1">
    <mxGraphModel dx="1434" dy="780" grid="1" gridSize="10" guides="1" tooltips="1" connect="1" arrows="1" fold="1" page="1" pageScale="1" pageWidth="850" pageHeight="1100" math="0" shadow="0" extFonts="Permanent Marker^https://fonts.googleapis.com/css?family=Permanent+Marker">
      <root>
        <mxCell id="0" />
        <mxCell id="1" parent="0" />
        <mxCell id="XUO9WcphjcbLwXYXSJal-2" value="Empleados" style="rounded=0;whiteSpace=wrap;html=1;" vertex="1" parent="1">
          <mxGeometry x="100" y="180" width="120" height="60" as="geometry" />
        </mxCell>
        <mxCell id="XUO9WcphjcbLwXYXSJal-3" value="Departamentos" style="rounded=0;whiteSpace=wrap;html=1;" vertex="1" parent="1">
          <mxGeometry x="310" y="440" width="120" height="60" as="geometry" />
        </mxCell>
        <mxCell id="XUO9WcphjcbLwXYXSJal-4" value="Proyecto" style="rounded=0;whiteSpace=wrap;html=1;" vertex="1" parent="1">
          <mxGeometry x="530" y="180" width="120" height="60" as="geometry" />
        </mxCell>
        <mxCell id="XUO9WcphjcbLwXYXSJal-5" value="ID" style="ellipse;whiteSpace=wrap;html=1;" vertex="1" parent="1">
          <mxGeometry x="200" y="430" width="60" height="50" as="geometry" />
        </mxCell>
        <mxCell id="XUO9WcphjcbLwXYXSJal-6" value="Nombre" style="ellipse;whiteSpace=wrap;html=1;" vertex="1" parent="1">
          <mxGeometry y="410" width="60" height="50" as="geometry" />
        </mxCell>
        <mxCell id="XUO9WcphjcbLwXYXSJal-7" value="Apellido" style="ellipse;whiteSpace=wrap;html=1;" vertex="1" parent="1">
          <mxGeometry x="40" y="490" width="60" height="50" as="geometry" />
        </mxCell>
        <mxCell id="XUO9WcphjcbLwXYXSJal-9" value="Cargo" style="ellipse;whiteSpace=wrap;html=1;" vertex="1" parent="1">
          <mxGeometry x="120" y="490" width="60" height="50" as="geometry" />
        </mxCell>
        <mxCell id="XUO9WcphjcbLwXYXSJal-10" value="Salario" style="ellipse;whiteSpace=wrap;html=1;" vertex="1" parent="1">
          <mxGeometry x="10" y="340" width="60" height="50" as="geometry" />
        </mxCell>
        <mxCell id="XUO9WcphjcbLwXYXSJal-11" value="Fecha de Inicio" style="ellipse;whiteSpace=wrap;html=1;" vertex="1" parent="1">
          <mxGeometry x="220" y="370" width="60" height="50" as="geometry" />
        </mxCell>
        <mxCell id="XUO9WcphjcbLwXYXSJal-13" value="ID" style="ellipse;whiteSpace=wrap;html=1;" vertex="1" parent="1">
          <mxGeometry x="325" y="650" width="60" height="50" as="geometry" />
        </mxCell>
        <mxCell id="XUO9WcphjcbLwXYXSJal-14" value="Nombre" style="ellipse;whiteSpace=wrap;html=1;" vertex="1" parent="1">
          <mxGeometry x="440" y="640" width="60" height="50" as="geometry" />
        </mxCell>
        <mxCell id="XUO9WcphjcbLwXYXSJal-18" value="ID" style="ellipse;whiteSpace=wrap;html=1;" vertex="1" parent="1">
          <mxGeometry x="490" y="300" width="60" height="50" as="geometry" />
        </mxCell>
        <mxCell id="XUO9WcphjcbLwXYXSJal-19" value="Nombre" style="ellipse;whiteSpace=wrap;html=1;" vertex="1" parent="1">
          <mxGeometry x="560" y="360" width="60" height="50" as="geometry" />
        </mxCell>
        <mxCell id="XUO9WcphjcbLwXYXSJal-20" value="DescripciÃ³n" style="ellipse;whiteSpace=wrap;html=1;" vertex="1" parent="1">
          <mxGeometry x="650" y="360" width="60" height="50" as="geometry" />
        </mxCell>
        <mxCell id="XUO9WcphjcbLwXYXSJal-26" value="" style="endArrow=none;html=1;rounded=0;exitX=0.65;exitY=0.02;exitDx=0;exitDy=0;exitPerimeter=0;" edge="1" parent="1" source="XUO9WcphjcbLwXYXSJal-10">
          <mxGeometry width="50" height="50" relative="1" as="geometry">
            <mxPoint x="110" y="290" as="sourcePoint" />
            <mxPoint x="160" y="240" as="targetPoint" />
          </mxGeometry>
        </mxCell>
        <mxCell id="XUO9WcphjcbLwXYXSJal-27" value="" style="endArrow=none;html=1;rounded=0;exitX=1;exitY=0;exitDx=0;exitDy=0;" edge="1" parent="1" source="XUO9WcphjcbLwXYXSJal-6">
          <mxGeometry width="50" height="50" relative="1" as="geometry">
            <mxPoint x="59" y="351" as="sourcePoint" />
            <mxPoint x="160" y="240" as="targetPoint" />
          </mxGeometry>
        </mxCell>
        <mxCell id="XUO9WcphjcbLwXYXSJal-28" value="" style="endArrow=none;html=1;rounded=0;exitX=0.5;exitY=0;exitDx=0;exitDy=0;" edge="1" parent="1" source="XUO9WcphjcbLwXYXSJal-7">
          <mxGeometry width="50" height="50" relative="1" as="geometry">
            <mxPoint x="61" y="427" as="sourcePoint" />
            <mxPoint x="160" y="240" as="targetPoint" />
          </mxGeometry>
        </mxCell>
        <mxCell id="XUO9WcphjcbLwXYXSJal-29" value="" style="endArrow=none;html=1;rounded=0;" edge="1" parent="1" source="XUO9WcphjcbLwXYXSJal-9">
          <mxGeometry width="50" height="50" relative="1" as="geometry">
            <mxPoint x="80" y="500" as="sourcePoint" />
            <mxPoint x="160" y="240" as="targetPoint" />
          </mxGeometry>
        </mxCell>
        <mxCell id="XUO9WcphjcbLwXYXSJal-30" value="" style="endArrow=none;html=1;rounded=0;exitX=0;exitY=0;exitDx=0;exitDy=0;" edge="1" parent="1" source="XUO9WcphjcbLwXYXSJal-5">
          <mxGeometry width="50" height="50" relative="1" as="geometry">
            <mxPoint x="161" y="500" as="sourcePoint" />
            <mxPoint x="160" y="240" as="targetPoint" />
          </mxGeometry>
        </mxCell>
        <mxCell id="XUO9WcphjcbLwXYXSJal-31" value="" style="endArrow=none;html=1;rounded=0;exitX=0;exitY=0;exitDx=0;exitDy=0;" edge="1" parent="1" source="XUO9WcphjcbLwXYXSJal-11">
          <mxGeometry width="50" height="50" relative="1" as="geometry">
            <mxPoint x="230" y="360" as="sourcePoint" />
            <mxPoint x="160" y="240" as="targetPoint" />
          </mxGeometry>
        </mxCell>
        <mxCell id="XUO9WcphjcbLwXYXSJal-32" value="" style="endArrow=none;html=1;rounded=0;exitX=0.383;exitY=0.04;exitDx=0;exitDy=0;exitPerimeter=0;" edge="1" parent="1" source="XUO9WcphjcbLwXYXSJal-13">
          <mxGeometry width="50" height="50" relative="1" as="geometry">
            <mxPoint x="340" y="550" as="sourcePoint" />
            <mxPoint x="390" y="500" as="targetPoint" />
            <Array as="points">
              <mxPoint x="380" y="540" />
            </Array>
          </mxGeometry>
        </mxCell>
        <mxCell id="XUO9WcphjcbLwXYXSJal-33" value="" style="endArrow=none;html=1;rounded=0;exitX=0.5;exitY=0;exitDx=0;exitDy=0;" edge="1" parent="1" source="XUO9WcphjcbLwXYXSJal-14">
          <mxGeometry width="50" height="50" relative="1" as="geometry">
            <mxPoint x="340" y="550" as="sourcePoint" />
            <mxPoint x="390" y="500" as="targetPoint" />
          </mxGeometry>
        </mxCell>
        <mxCell id="XUO9WcphjcbLwXYXSJal-36" value="" style="endArrow=none;html=1;rounded=0;entryX=0.392;entryY=1.05;entryDx=0;entryDy=0;entryPerimeter=0;" edge="1" parent="1" target="XUO9WcphjcbLwXYXSJal-4">
          <mxGeometry width="50" height="50" relative="1" as="geometry">
            <mxPoint x="520" y="300" as="sourcePoint" />
            <mxPoint x="570" y="250" as="targetPoint" />
          </mxGeometry>
        </mxCell>
        <mxCell id="XUO9WcphjcbLwXYXSJal-38" value="" style="endArrow=none;html=1;rounded=0;" edge="1" parent="1" source="XUO9WcphjcbLwXYXSJal-20">
          <mxGeometry width="50" height="50" relative="1" as="geometry">
            <mxPoint x="530" y="290" as="sourcePoint" />
            <mxPoint x="580" y="240" as="targetPoint" />
          </mxGeometry>
        </mxCell>
        <mxCell id="XUO9WcphjcbLwXYXSJal-39" value="" style="endArrow=none;html=1;rounded=0;exitX=0.5;exitY=0;exitDx=0;exitDy=0;" edge="1" parent="1" source="XUO9WcphjcbLwXYXSJal-19">
          <mxGeometry width="50" height="50" relative="1" as="geometry">
            <mxPoint x="530" y="290" as="sourcePoint" />
            <mxPoint x="580" y="240" as="targetPoint" />
          </mxGeometry>
        </mxCell>
        <mxCell id="XUO9WcphjcbLwXYXSJal-49" value="N:M" style="text;html=1;strokeColor=none;fillColor=none;align=center;verticalAlign=middle;whiteSpace=wrap;rounded=0;" vertex="1" parent="1">
          <mxGeometry x="320" y="220" width="60" height="30" as="geometry" />
        </mxCell>
        <mxCell id="XUO9WcphjcbLwXYXSJal-50" value="M:M" style="text;html=1;strokeColor=none;fillColor=none;align=center;verticalAlign=middle;whiteSpace=wrap;rounded=0;" vertex="1" parent="1">
          <mxGeometry x="330" y="170" width="60" height="30" as="geometry" />
        </mxCell>
        <mxCell id="XUO9WcphjcbLwXYXSJal-51" value="Realizan" style="rhombus;whiteSpace=wrap;html=1;" vertex="1" parent="1">
          <mxGeometry x="385" y="160" width="80" height="80" as="geometry" />
        </mxCell>
        <mxCell id="XUO9WcphjcbLwXYXSJal-52" value="" style="endArrow=classic;html=1;rounded=0;exitX=1;exitY=0.5;exitDx=0;exitDy=0;" edge="1" parent="1" source="XUO9WcphjcbLwXYXSJal-51">
          <mxGeometry width="50" height="50" relative="1" as="geometry">
            <mxPoint x="470" y="190" as="sourcePoint" />
            <mxPoint x="520" y="200" as="targetPoint" />
          </mxGeometry>
        </mxCell>
        <mxCell id="XUO9WcphjcbLwXYXSJal-53" value="" style="endArrow=classic;html=1;rounded=0;entryX=0;entryY=0.5;entryDx=0;entryDy=0;exitX=1;exitY=0.333;exitDx=0;exitDy=0;exitPerimeter=0;" edge="1" parent="1" source="XUO9WcphjcbLwXYXSJal-2" target="XUO9WcphjcbLwXYXSJal-51">
          <mxGeometry width="50" height="50" relative="1" as="geometry">
            <mxPoint x="220" y="210" as="sourcePoint" />
            <mxPoint x="270" y="160" as="targetPoint" />
          </mxGeometry>
        </mxCell>
        <mxCell id="XUO9WcphjcbLwXYXSJal-55" value="Pertenece a" style="rhombus;whiteSpace=wrap;html=1;" vertex="1" parent="1">
          <mxGeometry x="325" y="250" width="80" height="80" as="geometry" />
        </mxCell>
        <mxCell id="XUO9WcphjcbLwXYXSJal-56" value="" style="endArrow=classic;html=1;rounded=0;entryX=0;entryY=0.5;entryDx=0;entryDy=0;" edge="1" parent="1" source="XUO9WcphjcbLwXYXSJal-2" target="XUO9WcphjcbLwXYXSJal-55">
          <mxGeometry width="50" height="50" relative="1" as="geometry">
            <mxPoint x="220" y="260" as="sourcePoint" />
            <mxPoint x="290.71067811865476" y="210" as="targetPoint" />
          </mxGeometry>
        </mxCell>
        <mxCell id="XUO9WcphjcbLwXYXSJal-57" value="" style="endArrow=classic;html=1;rounded=0;exitX=0.5;exitY=1;exitDx=0;exitDy=0;" edge="1" parent="1" source="XUO9WcphjcbLwXYXSJal-55">
          <mxGeometry width="50" height="50" relative="1" as="geometry">
            <mxPoint x="360" y="380" as="sourcePoint" />
            <mxPoint x="365" y="440" as="targetPoint" />
          </mxGeometry>
        </mxCell>
      </root>
    </mxGraphModel>
  </diagram>
</mxfile>
